<svg xmlns="http://www.w3.org/2000/svg" width="900" height="220" viewBox="0 0 900 220">
  <rect width="900" height="220" rx="18" fill="#1e1e1e"/>
  <style>text{font:14px 'Segoe UI',sans-serif;fill:#d4d4d4} .icon{fill:none;stroke-linecap:round;stroke-linejoin:round;stroke-width:4}</style>
  <g transform="translate(90 42)">
    <rect x="0" y="0" width="92" height="92" rx="22" fill="#252526" stroke="#4ec9b0" stroke-width="3"/>
    <rect x="23" y="23" width="18" height="18" rx="4" fill="#4ec9b0"/>
    <rect x="51" y="23" width="18" height="18" rx="4" fill="#4ec9b0" opacity=".55"/>
    <rect x="23" y="51" width="18" height="18" rx="4" fill="#4ec9b0" opacity=".55"/>
    <path class="icon" stroke="#f8fafc" d="M51 65l8-8 7 5 12-14"/>
    <text x="-13" y="125">Dashboard</text>
  </g>
  <g transform="translate(314 42)">
    <rect x="0" y="0" width="92" height="92" rx="22" fill="#252526" stroke="#f59e0b" stroke-width="3"/>
    <rect x="25" y="18" width="42" height="56" rx="6" fill="none" stroke="#f8fafc" stroke-width="4"/>
    <path class="icon" stroke="#f59e0b" d="M34 34h24M34 45h24M34 56h12"/>
    <circle cx="57" cy="63" r="8" fill="#f59e0b"/>
    <path class="icon" stroke="#252526" stroke-width="3" d="M53 63l3 3 5-6"/>
    <text x="-17" y="125">Salary History</text>
  </g>
  <g transform="translate(538 42)">
    <rect x="0" y="0" width="92" height="92" rx="22" fill="#252526" stroke="#38bdf8" stroke-width="3"/>
    <path class="icon" stroke="#f8fafc" d="M23 30l7 7 11-13M23 55l7 7 11-13"/>
    <path class="icon" stroke="#38bdf8" d="M52 31h18M52 56h18"/>
    <path class="icon" stroke="#38bdf8" d="M23 75h47"/>
    <text x="2" y="125">Todo List</text>
  </g>
  <g transform="translate(762 42)">
    <rect x="0" y="0" width="92" height="92" rx="22" fill="#252526" stroke="#858585" stroke-width="3"/>
    <path class="icon" stroke="#f8fafc" d="M46 23l5 5 7-1 3 7 6 4-3 7 3 7-6 4-3 7-7-1-5 5-5-5-7 1-3-7-6-4 3-7-3-7 6-4 3-7 7 1z"/>
    <circle cx="46" cy="46" r="10" fill="#858585" stroke="#f8fafc" stroke-width="3"/>
    <text x="19" y="125">Settings</text>
  </g>
</svg>
